<svg xmlns="http://www.w3.org/2000/svg" xmlns:xlink="http://www.w3.org/1999/xlink" width="160" height="46" viewBox="0 0 160 46">
  <defs>
    <clipPath id="clip-path">
      <rect id="사각형_519" data-name="사각형 519" width="160" height="46" transform="translate(133 64)" fill="#fff"/>
    </clipPath>
  </defs>
  <g id="PC_logo_01" transform="translate(-133 -64)" clip-path="url(#clip-path)">
    <g id="logo_primera" transform="translate(133 64.502)">
      <g id="레이어_1" data-name="레이어 1" transform="translate(0 0)">
        <path id="패스_214" data-name="패스 214" d="M0,7.873H3.163v4.652A12.561,12.561,0,0,1,7.447,8.563a11,11,0,0,1,5.405-1.341,11.93,11.93,0,0,1,8.909,3.88,13.061,13.061,0,0,1,3.724,9.365A13.351,13.351,0,0,1,21.8,29.954a11.693,11.693,0,0,1-8.849,3.9A11.553,11.553,0,0,1,7.588,32.6a13.441,13.441,0,0,1-4.424-3.738v13.59H0Zm12.593,2.5a9.066,9.066,0,0,0-6.867,2.946,10.241,10.241,0,0,0-2.783,7.354,10.854,10.854,0,0,0,1.221,5.221,9.765,9.765,0,0,0,8.468,5,9.011,9.011,0,0,0,4.785-1.361,9.915,9.915,0,0,0,3.544-3.8,10.6,10.6,0,0,0,1.321-5.119,10.809,10.809,0,0,0-1.3-5.119,9.8,9.8,0,0,0-3.544-3.819,9.4,9.4,0,0,0-4.845-1.3Z" transform="translate(0 2.549)" fill="#fff"/>
        <path id="패스_215" data-name="패스 215" d="M22.523,7.846h3.2v3.8a11.976,11.976,0,0,1,3.043-3.271A5.946,5.946,0,0,1,32.092,7.3a5.41,5.41,0,0,1,2.783.874l-1.642,2.742a4.058,4.058,0,0,0-1.662-.447,4.507,4.507,0,0,0-3.043,1.178,8.568,8.568,0,0,0-2.2,4.063,40.2,40.2,0,0,0-.6,8.756v8.715h-3.2Z" transform="translate(7.508 2.576)" fill="#fff"/>
        <path id="패스_216" data-name="패스 216" d="M36.106,0a2.445,2.445,0,0,1,1.842.792,2.6,2.6,0,0,1,.761,1.91,2.579,2.579,0,0,1-.761,1.889,2.537,2.537,0,0,1-3.644,0A2.661,2.661,0,0,1,33.544,2.7,2.682,2.682,0,0,1,34.3.792,2.426,2.426,0,0,1,36.106,0ZM34.565,10.421h3.143V35.754H34.565Z" transform="translate(11.181 0)" fill="#fff"/>
        <path id="패스_217" data-name="패스 217" d="M40.285,7.873h3.143v4.388a12.454,12.454,0,0,1,3.383-3.555,9.29,9.29,0,0,1,5.025-1.483,7.91,7.91,0,0,1,3.363.731,7.052,7.052,0,0,1,2.6,1.91A10.047,10.047,0,0,1,59.565,13.3a12.13,12.13,0,0,1,4-4.53,9.232,9.232,0,0,1,5.085-1.544A7.71,7.71,0,0,1,76,12.261a20.407,20.407,0,0,1,.941,7.11V33.2h-3.3V19.371A19.2,19.2,0,0,0,73.1,13.7a5.042,5.042,0,0,0-2-2.458,5.506,5.506,0,0,0-3.243-.934,7,7,0,0,0-4.184,1.381,8.116,8.116,0,0,0-2.763,3.738,24.388,24.388,0,0,0-.881,7.78V33.2H56.962V20.224a23.405,23.405,0,0,0-.541-6.216,5.15,5.15,0,0,0-2-2.621,5.37,5.37,0,0,0-3.263-1,6.821,6.821,0,0,0-4,1.361,7.968,7.968,0,0,0-2.8,3.657,20.1,20.1,0,0,0-.921,7.049V33.2H40.285Z" transform="translate(13.428 2.549)" fill="#fff"/>
        <path id="패스_218" data-name="패스 218" d="M92.313,24.8l2.643,1.442a14.969,14.969,0,0,1-3.023,4.286A11.731,11.731,0,0,1,88.088,33a12.943,12.943,0,0,1-4.825.853,11.514,11.514,0,0,1-9.369-4.063,14.058,14.058,0,0,1-3.323-9.182,13.907,13.907,0,0,1,2.8-8.593,11.573,11.573,0,0,1,9.71-4.794,11.95,11.95,0,0,1,10.01,4.916,14.158,14.158,0,0,1,2.7,8.654H73.774a10.485,10.485,0,0,0,2.8,7.232,8.53,8.53,0,0,0,6.507,2.824,10.238,10.238,0,0,0,3.5-.67,9.2,9.2,0,0,0,3-1.788,14.827,14.827,0,0,0,2.723-3.6Zm0-6.805a10.922,10.922,0,0,0-1.842-4.063,8.467,8.467,0,0,0-3.183-2.519,9.276,9.276,0,0,0-4.164-.955,8.737,8.737,0,0,0-6.186,2.4,10.831,10.831,0,0,0-2.863,5.241Z" transform="translate(23.523 2.548)" fill="#fff"/>
        <path id="패스_219" data-name="패스 219" d="M92.793,7.846h3.223v3.8a11.937,11.937,0,0,1,3.023-3.271A5.946,5.946,0,0,1,102.382,7.3a5.5,5.5,0,0,1,2.823.772l-1.642,2.742a4.137,4.137,0,0,0-1.662-.447,4.471,4.471,0,0,0-3.083,1.28A8.587,8.587,0,0,0,96.6,15.707a42.037,42.037,0,0,0-.581,8.756v8.715H92.793Z" transform="translate(30.931 2.576)" fill="#fff"/>
        <path id="패스_220" data-name="패스 220" d="M126.382,7.873V33.2h-3.1V28.857a13.721,13.721,0,0,1-4.444,3.738,12.085,12.085,0,0,1-14.314-2.641,13.331,13.331,0,0,1-3.664-9.487,13.041,13.041,0,0,1,3.7-9.365,11.93,11.93,0,0,1,8.929-3.88,11.16,11.16,0,0,1,5.445,1.341,12.568,12.568,0,0,1,4.284,4.063V7.873Zm-12.593,2.5a9.351,9.351,0,0,0-8.368,5.079,10.576,10.576,0,0,0,0,10.157,9.813,9.813,0,0,0,3.564,3.8,8.951,8.951,0,0,0,4.785,1.361,9.642,9.642,0,0,0,4.9-1.341,9.355,9.355,0,0,0,3.544-3.535,10.646,10.646,0,0,0,1.261-5.18,10.24,10.24,0,0,0-2.8-7.354,9.067,9.067,0,0,0-6.887-2.986Z" transform="translate(33.618 2.549)" fill="#fff"/>
      </g>
    </g>
  </g>
</svg>
